# xmcd
#
# Track frame offsets: 
#        150
#        16685
#        37422
#
# Disc length: 810 seconds
#
# Revision: 3
# Processed by: cddbd v1.5.2PL0 Copyright (c) Steve Scherf et al.
# Submitted via: ExactAudioCopy v0.99pb4
#
DISCID=1d032803
DTITLE=Missy "Misdemeanor" Elliott Featuring Ludacris - One Minute Man
DTITLE=[CD, Maxi-Single)
DYEAR=2001
DGENRE=Hip-Hop - UK Garage, Pop Rap
TTITLE0=One Minute Man (Edit)
TTITLE1=One Minute Man (Album Version)
TTITLE2=One Minute Man (Oxide and Neutrino Remix)
EXTD=
EXTT0=
EXTT1=
EXTT2=
PLAYORDER=
